<mxfile host="app.diagrams.net" modified="2024-06-23T03:58:19.838Z" agent="Mozilla/5.0 (Windows NT 10.0; Win64; x64) AppleWebKit/537.36 (KHTML, like Gecko) Chrome/126.0.0.0 Safari/537.36" etag="lZsnpxco4DipJVf2UVwv" version="24.6.2" type="device">
  <diagram name="Seite-1" id="vO9bGe1PAfaSyUVrgkQa">
    <mxGraphModel dx="1392" dy="1796" grid="1" gridSize="10" guides="1" tooltips="1" connect="1" arrows="1" fold="1" page="1" pageScale="1" pageWidth="827" pageHeight="1169" math="0" shadow="0">
      <root>
        <mxCell id="0" />
        <mxCell id="1" parent="0" />
        <mxCell id="BdteyuvdXdqTVR_AdefD-1" value="&lt;p style=&quot;margin:0px;margin-top:6px;text-align:center;&quot;&gt;&lt;b&gt;controller&lt;/b&gt;&lt;/p&gt;&lt;hr size=&quot;1&quot; style=&quot;border-style:solid;&quot;&gt;&lt;p style=&quot;margin:0px;margin-left:8px;&quot;&gt;&lt;br&gt;&lt;/p&gt;" style="align=left;overflow=fill;html=1;dropTarget=0;whiteSpace=wrap;" parent="1" vertex="1">
          <mxGeometry x="-110" y="-220" width="380" height="230" as="geometry" />
        </mxCell>
        <mxCell id="BdteyuvdXdqTVR_AdefD-2" value="" style="shape=component;jettyWidth=8;jettyHeight=4;" parent="BdteyuvdXdqTVR_AdefD-1" vertex="1">
          <mxGeometry x="1" width="20" height="20" relative="1" as="geometry">
            <mxPoint x="-24" y="4" as="offset" />
          </mxGeometry>
        </mxCell>
        <mxCell id="BdteyuvdXdqTVR_AdefD-25" value="" style="edgeStyle=none;html=1;endArrow=block;endSize=12;dashed=1;verticalAlign=bottom;rounded=0;entryX=0.986;entryY=0.664;entryDx=0;entryDy=0;entryPerimeter=0;endFill=0;" parent="1" edge="1">
          <mxGeometry width="160" relative="1" as="geometry">
            <mxPoint x="-15.369999999999997" y="-40" as="sourcePoint" />
            <mxPoint x="-15.369999999999997" y="10" as="targetPoint" />
          </mxGeometry>
        </mxCell>
        <mxCell id="BdteyuvdXdqTVR_AdefD-32" value="" style="edgeStyle=none;html=1;endArrow=oval;endSize=12;dashed=1;verticalAlign=bottom;rounded=0;endFill=0;" parent="1" edge="1">
          <mxGeometry width="160" relative="1" as="geometry">
            <mxPoint x="-15.179999999999996" y="10" as="sourcePoint" />
            <mxPoint x="-15.179999999999996" y="40" as="targetPoint" />
          </mxGeometry>
        </mxCell>
        <mxCell id="BdteyuvdXdqTVR_AdefD-34" value="poems API" style="edgeLabel;html=1;align=center;verticalAlign=middle;resizable=0;points=[];" parent="BdteyuvdXdqTVR_AdefD-32" vertex="1" connectable="0">
          <mxGeometry x="-0.4667" relative="1" as="geometry">
            <mxPoint y="40" as="offset" />
          </mxGeometry>
        </mxCell>
        <mxCell id="BdteyuvdXdqTVR_AdefD-38" value="PoemController" style="html=1;dropTarget=0;whiteSpace=wrap;" parent="1" vertex="1">
          <mxGeometry x="-80" y="-90" width="130" height="50" as="geometry" />
        </mxCell>
        <mxCell id="BdteyuvdXdqTVR_AdefD-41" value="" style="edgeStyle=none;html=1;endArrow=open;endSize=12;dashed=1;verticalAlign=bottom;rounded=0;exitX=0.5;exitY=0;exitDx=0;exitDy=0;" parent="1" source="BdteyuvdXdqTVR_AdefD-38" target="BdteyuvdXdqTVR_AdefD-45" edge="1">
          <mxGeometry width="160" relative="1" as="geometry">
            <mxPoint x="80" y="-55" as="sourcePoint" />
            <mxPoint x="5" y="-130" as="targetPoint" />
          </mxGeometry>
        </mxCell>
        <mxCell id="BdteyuvdXdqTVR_AdefD-44" value="SuggestionController" style="html=1;dropTarget=0;whiteSpace=wrap;" parent="1" vertex="1">
          <mxGeometry x="110" y="-90" width="130" height="50" as="geometry" />
        </mxCell>
        <mxCell id="BdteyuvdXdqTVR_AdefD-45" value="GlobalExceptionHandler" style="html=1;dropTarget=0;whiteSpace=wrap;" parent="1" vertex="1">
          <mxGeometry y="-180" width="160" height="50" as="geometry" />
        </mxCell>
        <mxCell id="BdteyuvdXdqTVR_AdefD-46" value="" style="edgeStyle=none;html=1;endArrow=open;endSize=12;dashed=1;verticalAlign=bottom;rounded=0;exitX=0.5;exitY=0;exitDx=0;exitDy=0;entryX=0.75;entryY=1;entryDx=0;entryDy=0;" parent="1" source="BdteyuvdXdqTVR_AdefD-44" target="BdteyuvdXdqTVR_AdefD-45" edge="1">
          <mxGeometry width="160" relative="1" as="geometry">
            <mxPoint x="-5" y="-80" as="sourcePoint" />
            <mxPoint x="53" y="-120" as="targetPoint" />
          </mxGeometry>
        </mxCell>
        <mxCell id="BdteyuvdXdqTVR_AdefD-47" value="" style="edgeStyle=none;html=1;endArrow=block;endSize=12;dashed=1;verticalAlign=bottom;rounded=0;entryX=0.986;entryY=0.664;entryDx=0;entryDy=0;entryPerimeter=0;endFill=0;" parent="1" edge="1">
          <mxGeometry width="160" relative="1" as="geometry">
            <mxPoint x="180" y="-40" as="sourcePoint" />
            <mxPoint x="180" y="10" as="targetPoint" />
          </mxGeometry>
        </mxCell>
        <mxCell id="BdteyuvdXdqTVR_AdefD-48" value="" style="edgeStyle=none;html=1;endArrow=oval;endSize=12;dashed=1;verticalAlign=bottom;rounded=0;endFill=0;" parent="1" edge="1">
          <mxGeometry width="160" relative="1" as="geometry">
            <mxPoint x="180" y="10" as="sourcePoint" />
            <mxPoint x="180" y="40" as="targetPoint" />
          </mxGeometry>
        </mxCell>
        <mxCell id="BdteyuvdXdqTVR_AdefD-49" value="suggestions API" style="edgeLabel;html=1;align=center;verticalAlign=middle;resizable=0;points=[];" parent="BdteyuvdXdqTVR_AdefD-48" vertex="1" connectable="0">
          <mxGeometry x="-0.4667" relative="1" as="geometry">
            <mxPoint y="40" as="offset" />
          </mxGeometry>
        </mxCell>
      </root>
    </mxGraphModel>
  </diagram>
</mxfile>
